# xmcd
#
# Track frame offsets: 
#        150
#        14451
#        26449
#        42169
#        60253
#        72950
#        86107
#        96136
#        110110
#        124717
#        140021
#        155016
#        169410
#        182193
#        195426
#        208623
#        219654
#        234770
#
# Disc length: 3301 seconds
#
# Revision: 4
# Processed by: cddbd v1.5.2PL0 Copyright (c) Steve Scherf et al.
# Submitted via: ExactAudioCopy v0.99pb5
#
DISCID=fe0ce312
DTITLE=Various Artist - Best Bands in Country
DYEAR=1998
DGENRE=Country
TTITLE0=Nitty Gritty Dirt Band - Grand Ole Opry Song
TTITLE1=Oak Ridge Boys - Elvira
TTITLE2=The Dirt Band - An American Dream
TTITLE3=Pirates of the Mississippi - Feed Jake
TTITLE4=Exile - Give Me One More Chance
TTITLE5=The Ranch - Walkin' The Country
TTITLE6=The Statler Brothers - Ruthless
TTITLE7=Larry Gatlin and The Gatlin Brothers - Boogie and Beethoven
TTITLE8=Asleep at the Wheel - The Letter That Johnny Walker Read
TTITLE9=Nitty Gritty Dirt Band - Jambalaya (On The Bayou)
TTITLE10=McBride and The Ride - Sacred Ground
TTITLE11=The Maverick - Oh What A Thrill
TTITLE12=The O'Kanes - Can't Stop My Heart From Loving You
TTITLE13=Sweethearts of the Rodeo - Blue To The Bone
TTITLE14=Dr. Hook - When You're In Love With A Beautiful Woman
TTITLE15=Texas Playboys - Gambling Polka Dot Blues
TTITLE16=New Grass Revival - Unconditional Love
TTITLE17=River Road - Nickajack
EXTD=YEAR: 1998
EXTT0=
EXTT1=
EXTT2=
EXTT3=
EXTT4=
EXTT5=
EXTT6=
EXTT7=
EXTT8=
EXTT9=
EXTT10=
EXTT11=
EXTT12=
EXTT13=
EXTT14=
EXTT15=
EXTT16=
EXTT17=
PLAYORDER=
